<?xml version="1.0" encoding="utf-8"?>
<!-- Generator: Adobe Illustrator 24.0.1, SVG Export Plug-In . SVG Version: 6.00 Build 0)  -->
<svg version="1.1" id="Livello_1" xmlns="http://www.w3.org/2000/svg" xmlns:xlink="http://www.w3.org/1999/xlink" x="0px" y="0px"
	 viewBox="0 0 80 80" style="enable-background:new 0 0 80 80;" xml:space="preserve">
<style type="text/css">
	.st0{fill:#FFFFFF;}
</style>
<path class="st0" d="M40,0l1.8,5.2l2.4-5l1.3,5.4l2.9-4.8L49,6.4L52.4,2l0.1,5.6l3.8-4.1L55.8,9L60,5.4l-1,5.5l4.6-3.2L61.9,13
	l4.9-2.7l-2.2,5.1l5.1-2.2L67,18.1l5.3-1.6L69.2,21l5.5-1L71,24.2l5.5-0.5l-4.1,3.8l5.6,0.1L73.6,31l5.5,0.7l-4.8,2.9l5.4,1.3
	l-5,2.4L80,40l-5.2,1.8l5,2.4l-5.4,1.3l4.8,2.9L73.6,49l4.4,3.4l-5.6,0.1l4.1,3.8L71,55.8l3.6,4.2l-5.5-1l3.2,4.6L67,61.9l2.7,4.9
	l-5.1-2.2l2.2,5.1L61.9,67l1.6,5.3L59,69.2l1,5.5L55.8,71l0.5,5.5l-3.8-4.1L52.4,78L49,73.6l-0.7,5.5l-2.9-4.8l-1.3,5.4l-2.4-5
	L40,80l-1.8-5.2l-2.4,5l-1.3-5.4l-2.9,4.8L31,73.6L27.6,78l-0.1-5.6l-3.8,4.1l0.5-5.5L20,74.6l1-5.5l-4.6,3.2l1.6-5.3l-4.9,2.7
	l2.2-5.1l-5.1,2.2l2.7-4.9l-5.3,1.6l3.2-4.6l-5.5,1L9,55.8l-5.5,0.5l4.1-3.8L2,52.4L6.4,49l-5.5-0.7l4.8-2.9l-5.4-1.3l5-2.4L0,40
	l5.2-1.8l-5-2.4l5.4-1.3l-4.8-2.9L6.4,31L2,27.6l5.6-0.1l-4.1-3.8L9,24.2L5.4,20l5.5,1l-3.2-4.6l5.3,1.6l-2.7-4.9l5.1,2.2l-2.2-5.1
	l4.9,2.7l-1.6-5.3l4.6,3.2l-1-5.5L24.2,9l-0.5-5.5l3.8,4.1L27.6,2L31,6.4l0.7-5.5l2.9,4.8l1.3-5.4l2.4,5L40,0z"/>
</svg>
